<?xml version="1.0" standalone="no"?>
<!DOCTYPE svg PUBLIC "-//W3C//DTD SVG 20010904//EN"
 "http://www.w3.org/TR/2001/REC-SVG-20010904/DTD/svg10.dtd">
<svg version="1.0" xmlns="http://www.w3.org/2000/svg"
 width="315.000000pt" height="394.000000pt" viewBox="0 0 315.000000 394.000000"
 preserveAspectRatio="xMidYMid meet">

<g transform="translate(0.000000,394.000000) scale(0.100000,-0.100000)"
fill="#000000" stroke="none">
<path d="M154 2323 c2 -840 6 -1537 9 -1548 2 -11 8 -38 12 -60 25 -140 153
-306 303 -393 123 -70 153 -75 507 -83 282 -6 325 -9 365 -25 63 -27 118 -65
165 -113 51 -54 74 -53 139 6 118 106 228 133 554 133 262 0 328 10 442 67 55
27 97 59 156 118 100 99 147 181 182 315 4 14 6 552 5 1195 -2 644 1 1330 5
1525 5 195 7 362 5 370 -4 13 -173 15 -1429 18 l-1424 4 4 -1529z m2289 1460
c-67 -2 -179 -2 -250 0 -70 1 -15 3 122 3 138 0 195 -2 128 -3z m16 -63 c74
-6 139 -14 145 -19 13 -10 96 -20 189 -22 37 -1 71 -7 74 -12 4 -7 -168 -8
-503 -4 -526 6 -686 17 -434 31 74 4 139 11 145 16 24 20 193 24 384 10z m486
-2950 c-38 -185 -155 -341 -316 -419 -46 -22 -104 -45 -129 -51 -25 -7 -175
-15 -335 -19 -257 -6 -297 -10 -354 -28 -35 -12 -60 -18 -55 -14 11 10 61 28
132 47 39 10 118 14 299 14 144 0 263 4 287 11 101 26 123 34 148 51 14 10 31
18 37 18 6 0 11 3 11 8 0 4 14 13 30 20 17 8 27 18 24 24 -4 6 -3 8 3 5 11 -7
66 46 58 56 -3 4 -2 5 1 2 13 -9 74 74 74 100 0 9 4 14 9 10 6 -3 20 27 32 67
l23 73 1 1230 c0 1153 6 1582 23 1665 4 19 8 -602 10 -1380 2 -1236 0 -1424
-13 -1490z m-58 2788 c-2 -13 -4 -3 -4 22 0 25 2 35 4 23 2 -13 2 -33 0 -45z
m-897 -385 l0 -438 -407 2 -408 3 -3 435 -2 435 410 0 410 0 0 -437z m602 420
c-112 -2 -292 -2 -400 0 -108 1 -17 2 203 2 220 0 309 -1 197 -2z m195 -125
c-2 -24 -4 -7 -4 37 0 44 2 63 4 43 2 -21 2 -57 0 -80z m-153 -39 c-4 -7 64
-392 86 -483 5 -22 7 -43 4 -48 -3 -4 -32 -8 -65 -8 -58 0 -59 1 -59 28 0 59
-9 72 -51 72 -37 0 -39 -2 -39 -31 0 -56 -14 -69 -76 -69 -55 0 -56 0 -50 28
3 15 24 128 46 252 23 124 43 233 46 243 4 14 18 17 79 17 66 0 74 2 69 18 -5
14 -4 14 4 2 6 -8 9 -17 6 -21z m-270 -28 c30 -28 50 -111 41 -168 -16 -94
-47 -123 -132 -123 l-48 0 3 -86 c2 -48 1 -97 -3 -111 -5 -22 -10 -24 -63 -21
l-57 3 -5 270 -5 270 122 -5 c111 -5 124 -7 147 -29z m-1745 1 c49 -48 53
-186 6 -239 -17 -21 -33 -27 -78 -31 l-56 -4 -3 -102 -3 -101 -55 0 -55 0 -3
253 -2 252 111 0 c108 0 111 -1 138 -28z m235 -74 c9 -56 18 -104 20 -105 2
-2 6 21 10 52 3 30 11 77 17 105 l11 50 79 0 79 0 0 -255 0 -255 -55 0 -55 0
-1 148 -1 147 -24 -135 c-13 -74 -26 -141 -29 -148 -3 -8 -17 -12 -37 -10
l-32 3 -27 150 -27 150 -1 -153 -1 -153 -52 3 -53 3 -3 253 -2 252 83 0 84 0
17 -102z m1537 75 c13 -16 12 -17 -3 -4 -10 7 -18 15 -18 17 0 8 8 3 21 -13z
m396 -465 c-1 -90 -3 -17 -3 162 0 179 2 252 3 163 2 -90 2 -236 0 -325z
m-357 451 c0 -5 -4 -9 -10 -9 -5 0 -10 7 -10 16 0 8 5 12 10 9 6 -3 10 -10 10
-16z m17 -51 c-3 -8 -6 -5 -6 6 -1 11 2 17 5 13 3 -3 4 -12 1 -19z m-20 -30
c-3 -7 -5 -2 -5 12 0 14 2 19 5 13 2 -7 2 -19 0 -25z m270 -434 c-3 -3 -12 -4
-19 -1 -8 3 -5 6 6 6 11 1 17 -2 13 -5z m-214 -111 c-46 -2 -120 -2 -165 0
-46 1 -9 3 82 3 91 0 128 -2 83 -3z m308 -18 c-1 -6 -17 -10 -36 -9 -19 0
-198 2 -397 4 l-363 5 390 5 c215 3 394 5 398 5 5 0 8 -5 8 -10z m-2573 -947
c-1 -597 -4 -839 -9 -713 -4 105 -6 480 -3 835 2 355 4 675 4 713 0 37 2 67 5
67 3 0 4 -406 3 -902z m2590 -85 l-3 -958 -37 -78 c-63 -131 -177 -227 -313
-263 -34 -10 -119 -14 -270 -14 -121 0 -251 -5 -289 -10 -87 -13 -199 -51
-264 -89 l-51 -30 -51 34 c-118 79 -205 95 -530 95 -175 0 -260 4 -296 14
-167 44 -306 185 -343 347 -7 28 -11 384 -11 977 l0 932 1230 0 1230 0 -2
-957z m-2558 -1028 c0 -5 -5 -3 -10 5 -5 8 -10 20 -10 25 0 6 5 3 10 -5 5 -8
10 -19 10 -25z m55 -115 c8 -16 43 -60 76 -97 l62 -68 -66 67 c-57 58 -108
128 -93 128 3 0 12 -13 21 -30z m305 -241 c85 -32 83 -39 -3 -10 -58 20 -143
66 -153 83 -3 5 13 -3 37 -18 24 -16 78 -40 119 -55z m223 -6 c-7 -2 -19 -2
-25 0 -7 3 -2 5 12 5 14 0 19 -2 13 -5z m1345 0 c-21 -2 -57 -2 -80 0 -24 2
-7 4 37 4 44 0 63 -2 43 -4z m100 0 c-10 -2 -28 -2 -40 0 -13 2 -5 4 17 4 22
1 32 -1 23 -4z m105 0 c-13 -2 -33 -2 -45 0 -13 2 -3 4 22 4 25 0 35 -2 23 -4z
m-1016 -19 c-3 -3 -12 -4 -19 -1 -8 3 -5 6 6 6 11 1 17 -2 13 -5z m-73 -17
c32 -10 -3 -11 -190 -9 -126 2 -269 7 -319 11 -68 6 -21 8 190 9 187 0 293 -3
319 -11z m153 -13 c-5 -5 -57 13 -57 20 0 3 14 0 31 -6 16 -6 28 -12 26 -14z
m-30 -26 c15 -6 31 -11 36 -10 4 1 7 -2 7 -7 0 -11 72 -57 83 -53 5 1 6 -2 3
-6 -3 -5 3 -17 13 -26 15 -14 24 -15 40 -6 12 6 21 15 21 21 0 6 -5 7 -12 3
-7 -4 -8 -3 -4 5 4 6 11 9 16 6 5 -3 26 4 47 16 28 15 31 15 13 2 -14 -10 -42
-33 -63 -52 l-38 -34 -42 39 c-69 65 -82 74 -144 100 -32 14 -46 23 -31 20 15
-4 40 -11 55 -18z m129 -40 c12 -14 13 -18 3 -10 -9 6 -18 10 -21 7 -2 -3 -5
2 -5 10 0 19 0 19 23 -7z m69 -8 c-10 -11 -22 -20 -28 -20 -5 0 1 9 14 20 31
25 37 25 14 0z"/>
<path d="M1442 3373 c53 -31 95 -59 93 -61 -5 -5 -99 39 -152 72 l-42 27 -12
-23 c-11 -20 -10 -21 3 -11 12 10 18 10 34 -2 16 -13 16 -14 2 -9 -30 10 -20
-2 23 -30 22 -15 44 -24 47 -20 4 4 2 9 -4 11 -6 2 -20 11 -30 19 -10 9 4 4
31 -11 56 -31 74 -45 59 -45 -5 0 -15 5 -22 12 -6 6 -15 9 -18 5 -4 -3 5 -12
20 -18 34 -16 33 -23 -9 -49 -27 -16 -39 -19 -54 -11 -13 7 -28 8 -44 2 -16
-6 -28 -6 -36 2 -8 8 -11 4 -11 -15 0 -15 5 -30 12 -34 7 -5 9 -2 6 8 -4 8 -1
15 6 15 6 0 12 -9 12 -19 0 -10 -4 -18 -8 -18 -4 0 -5 -6 -2 -14 3 -8 0 -17
-7 -22 -8 -4 -10 -3 -5 4 5 8 1 10 -10 5 -11 -4 -13 -8 -6 -11 7 -2 12 -10 12
-17 0 -7 8 -15 18 -18 9 -2 25 -8 35 -12 12 -5 16 -3 12 6 -3 8 4 20 15 27 18
11 20 10 20 -12 0 -29 -24 -50 -47 -42 -14 6 -15 5 -6 -5 19 -19 63 4 63 33 0
34 9 43 78 82 l62 35 63 -36 c69 -41 77 -48 77 -81 0 -27 44 -52 62 -34 8 8 6
10 -9 6 -21 -6 -37 9 -46 44 -6 25 0 27 27 7 10 -8 15 -19 10 -26 -5 -8 -2
-11 8 -6 16 6 45 -20 66 -58 9 -16 11 -17 12 -3 0 9 -12 30 -26 47 -20 24 -22
31 -10 31 9 0 16 7 16 16 0 21 18 8 41 -30 10 -17 19 -26 19 -19 0 16 -50 74
-60 68 -4 -2 -15 4 -24 14 -12 13 -14 21 -6 26 6 4 9 13 7 19 -3 7 1 13 8 13
7 0 11 -7 8 -16 -4 -14 -4 -14 6 -1 15 21 15 58 0 43 -8 -8 -20 -8 -36 -2 -16
6 -31 5 -44 -1 -15 -9 -28 -6 -60 13 l-40 24 36 22 c20 11 41 21 47 21 5 0 7
7 4 16 -3 8 -2 12 4 9 13 -8 72 24 65 35 -3 5 0 12 6 16 8 4 9 3 5 -4 -4 -7
-1 -12 9 -12 13 0 14 4 5 21 -10 18 -14 19 -33 6 -54 -35 -155 -87 -168 -87
-8 0 31 27 86 61 55 33 90 58 78 54 -12 -3 -62 -30 -112 -60 -50 -30 -95 -55
-100 -55 -10 0 -148 77 -171 95 -8 7 -26 16 -40 19 -14 4 19 -19 72 -51z m348
-8 c0 -2 -10 -9 -22 -15 -22 -11 -22 -10 -4 4 21 17 26 19 26 11z m-90 -55
c-24 -19 -40 -25 -40 -15 0 5 51 34 60 34 3 0 -6 -8 -20 -19z m-139 -13 c4 -5
14 -5 26 1 21 12 63 5 63 -9 0 -5 -12 -17 -27 -26 -15 -10 -39 -28 -52 -41
-19 -17 -27 -20 -30 -10 -8 26 -26 26 -73 1 -73 -40 -67 -22 7 20 65 37 96 49
61 22 -30 -23 -14 -18 38 11 50 28 64 44 16 19 -33 -17 -44 -19 -35 -6 3 5 1
12 -5 16 -5 3 -10 1 -10 -4 0 -6 -7 -11 -15 -11 -8 0 -15 6 -15 13 0 15 42 18
51 4z m195 -82 c17 17 34 12 34 -10 0 -21 -59 -15 -106 11 -40 23 -57 21 -66
-6 -3 -10 -6 -11 -11 -3 -4 7 2 21 14 32 21 19 21 19 71 -10 44 -26 51 -28 64
-14z m-353 -11 c-7 -18 -33 -18 -33 -1 0 19 10 27 25 20 8 -2 11 -11 8 -19z"/>
<path d="M1284 3095 c-9 -14 -15 -27 -13 -30 3 -2 12 10 21 26 21 36 15 39 -8
4z"/>
<path d="M1331 3064 c-11 -15 -21 -33 -21 -42 0 -8 11 2 25 23 30 44 27 58 -4
19z"/>
<path d="M1284 3035 c-7 -19 -14 -46 -14 -60 0 -15 -4 -24 -10 -20 -16 10 -12
-31 5 -45 8 -7 25 -10 39 -6 38 9 46 56 9 56 -13 0 -15 10 -11 55 3 30 3 55 1
55 -2 0 -11 -16 -19 -35z"/>
<path d="M1858 3015 c4 -45 2 -55 -11 -55 -37 0 -29 -47 9 -56 14 -4 31 -1 39
6 17 14 21 55 5 45 -6 -4 -10 5 -10 20 0 24 -24 95 -33 95 -2 0 -2 -25 1 -55z"/>
<path d="M1901 2984 c0 -11 3 -14 6 -6 3 7 2 16 -1 19 -3 4 -6 -2 -5 -13z"/>
<path d="M2546 3235 c-5 -33 -12 -79 -16 -102 -7 -42 -7 -43 21 -43 28 0 29 2
24 38 -4 20 -10 66 -14 102 l-7 65 -8 -60z"/>
<path d="M2229 3335 c-2 -21 -1 -125 2 -127 2 -1 14 1 27 4 21 6 23 11 20 59
-2 43 -7 53 -25 60 -13 5 -23 6 -24 4z"/>
<path d="M490 3284 c0 -62 1 -65 23 -62 19 3 22 10 25 51 3 49 -9 77 -34 77
-11 0 -14 -17 -14 -66z"/>
<path d="M1558 2523 c-45 -52 -47 -71 -13 -111 32 -38 32 -47 0 -26 -54 35
-145 -8 -126 -59 16 -43 80 -51 106 -14 l16 22 19 -23 c16 -19 17 -27 8 -42
-9 -14 -16 -16 -25 -8 -19 16 -42 3 -36 -21 7 -26 39 -28 65 -4 18 16 18 16
12 0 -3 -9 -11 -17 -17 -17 -6 0 -2 -10 11 -22 21 -22 22 -22 36 -3 13 18 13
22 -1 38 -11 11 -12 17 -4 17 6 0 14 -7 17 -15 8 -20 53 -19 61 1 9 24 -13 40
-32 24 -14 -12 -18 -11 -26 1 -10 16 -2 50 15 61 6 4 19 -2 29 -13 28 -29 77
-22 97 14 14 27 14 29 -13 53 -32 28 -65 30 -107 9 l-30 -15 31 44 c35 48 34
50 -21 113 l-35 40 -37 -44z"/>
<path d="M1190 2470 c6 -11 13 -20 16 -20 2 0 0 9 -6 20 -6 11 -13 20 -16 20
-2 0 0 -9 6 -20z"/>
<path d="M1996 2474 c-5 -14 -4 -15 9 -4 13 11 15 7 15 -30 l0 -43 -22 19 -21
19 18 -28 c10 -15 15 -31 11 -35 -4 -3 -10 -2 -14 4 -4 6 -16 16 -28 22 -18
10 -20 8 -20 -18 0 -16 3 -27 8 -24 4 3 8 0 8 -5 0 -6 7 -11 15 -11 25 0 17
-17 -15 -30 -17 -7 -29 -15 -26 -17 2 -2 18 3 35 11 17 9 34 17 38 17 5 0 18
2 31 6 19 4 21 8 10 21 -10 12 -10 16 0 19 6 3 12 12 12 21 0 13 -3 12 -15 -4
-16 -21 -17 -20 -19 50 -1 49 -18 72 -30 40z m-16 -99 c7 -8 8 -15 2 -15 -5 0
-15 7 -22 15 -7 8 -8 15 -2 15 5 0 15 -7 22 -15z m50 -31 c0 -14 -21 -19 -33
-7 -9 9 13 34 24 27 5 -3 9 -12 9 -20z"/>
<path d="M1172 2435 c0 -16 2 -22 5 -12 2 9 2 23 0 30 -3 6 -5 -1 -5 -18z"/>
<path d="M1237 2440 c-3 -11 -1 -20 4 -20 5 0 9 9 9 20 0 11 -2 20 -4 20 -2 0
-6 -9 -9 -20z"/>
<path d="M1940 2455 c0 -5 5 -17 10 -25 5 -8 10 -10 10 -5 0 6 -5 17 -10 25
-5 8 -10 11 -10 5z"/>
<path d="M960 2427 c0 -3 12 -12 26 -22 15 -9 23 -12 20 -6 -7 11 -46 35 -46
28z"/>
<path d="M1190 2412 c-8 -9 -21 -30 -29 -45 -8 -15 -19 -27 -25 -27 -6 -1 3
-7 21 -15 20 -8 33 -22 35 -37 3 -26 29 -31 36 -8 5 13 3 13 -11 1 -15 -12
-17 -10 -17 15 0 22 3 25 12 16 7 -7 17 -12 23 -12 5 0 2 5 -7 11 -23 13 -23
29 -1 29 9 0 13 3 10 7 -4 3 1 15 10 26 18 20 18 20 -7 4 -34 -23 -50 -21 -21
3 13 11 19 20 13 20 -6 0 -17 -7 -25 -15 -24 -23 -29 -3 -5 22 12 13 17 23 12
23 -5 0 -16 -8 -24 -18z m8 -65 c2 -10 -3 -17 -12 -17 -18 0 -29 16 -21 31 9
14 29 6 33 -14z"/>
<path d="M2200 2410 c-14 -11 -20 -20 -14 -20 6 0 17 6 24 14 6 8 21 17 33 19
20 4 20 4 2 5 -11 1 -31 -7 -45 -18z"/>
<path d="M1020 2400 c0 -5 5 -10 11 -10 5 0 7 5 4 10 -3 6 -8 10 -11 10 -2 0
-4 -4 -4 -10z"/>
<path d="M1272 2378 c-13 -15 -22 -28 -19 -28 10 0 49 40 45 48 -1 5 -13 -4
-26 -20z"/>
<path d="M1890 2402 c0 -5 9 -17 20 -27 11 -10 20 -15 20 -12 0 4 -9 16 -20
27 -11 11 -20 16 -20 12z"/>
<path d="M1130 2391 c0 -5 5 -13 10 -16 6 -3 10 -2 10 4 0 5 -4 13 -10 16 -5
3 -10 2 -10 -4z"/>
<path d="M1025 2361 c2 -5 -4 -17 -14 -28 -19 -20 -19 -21 5 -47 33 -34 41
-33 15 3 -20 27 -20 29 -2 45 9 9 21 13 24 9 4 -3 7 -2 7 4 0 6 -9 13 -20 16
-11 3 -18 2 -15 -2z"/>
<path d="M1330 2353 c-13 -15 -12 -16 4 -10 10 4 20 7 22 7 2 0 4 5 4 10 0 15
-13 12 -30 -7z"/>
<path d="M1830 2361 c0 -5 7 -12 16 -15 24 -9 28 -7 14 9 -14 17 -30 20 -30 6z"/>
<path d="M2156 2361 c-3 -5 1 -14 8 -20 12 -10 13 -8 9 8 -6 23 -9 25 -17 12z"/>
<path d="M1265 2340 c-16 -7 -17 -9 -3 -9 9 -1 20 4 23 9 7 11 7 11 -20 0z"/>
<path d="M1890 2340 c-9 -6 -10 -10 -3 -10 6 0 15 5 18 10 8 12 4 12 -15 0z"/>
<path d="M1054 2324 c-18 -14 -18 -15 4 -4 12 6 22 13 22 15 0 8 -5 6 -26 -11z"/>
<path d="M2135 2320 c3 -5 8 -10 11 -10 2 0 4 5 4 10 0 6 -5 10 -11 10 -5 0
-7 -4 -4 -10z"/>
<path d="M1310 2309 c0 -5 5 -7 10 -4 6 3 10 8 10 11 0 2 -4 4 -10 4 -5 0 -10
-5 -10 -11z"/>
<path d="M2170 2295 c-13 -14 -20 -25 -17 -25 10 0 49 41 45 46 -3 2 -15 -7
-28 -21z"/>
<path d="M1285 2297 c11 -9 15 -19 10 -28 -6 -11 -5 -12 5 -2 11 10 11 15 0
28 -7 8 -17 15 -23 15 -6 0 -3 -6 8 -13z"/>
<path d="M1893 2291 c-12 -19 -8 -31 9 -31 5 0 6 5 3 10 -4 6 -1 17 5 25 7 8
8 15 4 15 -5 0 -15 -9 -21 -19z"/>
<path d="M1079 2287 c6 -8 9 -16 6 -19 -3 -3 5 -13 17 -24 l23 -19 -19 23
c-13 14 -15 22 -6 22 10 0 10 3 0 15 -7 8 -17 15 -22 15 -7 0 -6 -5 1 -13z"/>
<path d="M2094 2286 c-10 -8 -16 -17 -13 -20 3 -3 14 3 24 14 21 23 17 26 -11
6z"/>
<path d="M1966 2275 c4 -8 11 -15 16 -15 6 0 5 6 -2 15 -7 8 -14 15 -16 15 -2
0 -1 -7 2 -15z"/>
<path d="M2086 2247 c-18 -13 -18 -14 0 -21 10 -4 15 -4 11 0 -4 4 -2 13 4 21
15 17 8 17 -15 0z"/>
<path d="M1251 2174 c0 -11 3 -14 6 -6 3 7 2 16 -1 19 -3 4 -6 -2 -5 -13z"/>
<path d="M1634 1945 c3 -8 -4 -23 -15 -34 l-21 -19 20 -11 c12 -6 38 -11 59
-11 22 0 44 -5 50 -11 7 -7 12 -4 16 10 7 27 -23 46 -44 28 -7 -7 -10 -8 -6
-3 3 5 -1 15 -11 23 -9 8 -11 12 -5 8 7 -3 21 -8 30 -10 10 -2 29 -7 43 -11
23 -7 24 -6 11 10 -33 40 -141 67 -127 31z"/>
<path d="M2242 1933 c-6 -3 -10 -9 -7 -14 4 -5 -1 -6 -9 -3 -21 8 -66 -40 -66
-71 0 -14 4 -25 8 -25 17 0 101 105 91 114 -2 2 -10 1 -17 -1z"/>
<path d="M904 1903 c8 -16 28 -41 45 -57 l31 -30 0 37 c0 31 -5 40 -32 57 -48
29 -62 27 -44 -7z"/>
<path d="M2030 1926 c0 -20 38 -69 68 -88 51 -32 47 -17 -13 42 -30 30 -55 51
-55 46z"/>
<path d="M1055 1870 c-53 -54 -52 -66 1 -25 32 25 60 62 52 71 -2 2 -26 -19
-53 -46z"/>
<path d="M1373 1883 c-31 -16 -44 -33 -24 -33 12 0 6 -44 -14 -99 -10 -30 -12
-48 -5 -55 6 -6 4 -16 -8 -29 -16 -18 -16 -20 13 -43 16 -13 26 -27 21 -31 -4
-4 -13 0 -20 10 -16 20 -28 23 -20 3 3 -9 -2 -13 -17 -12 -46 2 -66 -140 -28
-203 24 -40 37 -34 19 10 -17 39 -15 99 5 145 15 37 16 37 69 1 27 -19 28 -21
9 -28 -24 -9 -32 -76 -33 -298 l-1 -143 58 6 c32 4 79 10 106 13 38 5 47 3 47
-10 0 -8 4 -17 9 -19 6 -1 13 -53 17 -114 7 -109 6 -110 -18 -126 -31 -20
-161 -29 -153 -10 7 19 -9 14 -22 -7 -12 -18 -5 -19 218 -20 159 -1 229 1 224
9 -4 6 -47 10 -106 10 -59 0 -99 4 -99 10 0 6 6 10 14 10 8 0 17 8 21 17 3 10
10 121 16 247 5 126 11 231 13 233 9 9 37 -11 41 -31 3 -11 26 -120 50 -241
42 -200 48 -222 73 -242 20 -16 40 -22 79 -23 44 0 57 5 93 35 48 40 52 42 48
18 -2 -13 5 -19 22 -21 20 -2 22 -1 10 8 -12 9 -10 11 10 7 14 -3 41 1 60 8
l35 12 -34 8 c-25 5 -30 10 -20 16 10 6 7 9 -12 9 -14 0 -30 -5 -37 -12 -9 -9
-12 -9 -12 -1 0 7 5 15 10 18 6 3 10 14 10 23 0 12 -3 13 -12 4 -19 -19 -30
-14 -18 7 18 34 -11 38 -37 5 -15 -18 -21 -22 -17 -10 5 12 4 17 -3 13 -6 -4
-13 -18 -16 -33 -4 -24 -3 -26 25 -20 21 4 28 2 25 -7 -2 -6 -12 -14 -23 -16
-10 -2 -32 -13 -49 -24 l-30 -21 25 29 c24 27 24 27 2 16 -12 -7 -28 -20 -34
-31 -12 -18 -12 -18 -38 0 -25 18 -28 27 -38 132 -6 62 -8 134 -5 159 3 27 0
63 -7 85 -8 22 -13 76 -13 122 1 45 -3 84 -7 87 -5 3 -11 27 -15 53 -3 26 -8
63 -10 82 l-4 35 29 -32 c34 -38 53 -99 48 -156 -2 -26 2 -42 9 -44 20 -7 35
45 36 120 0 56 -5 77 -30 125 -18 36 -35 56 -44 54 -9 -1 -21 12 -30 30 -8 19
-31 42 -54 55 -35 20 -41 21 -52 7 -7 -10 -13 -11 -18 -5 -4 8 -12 8 -26 1
-15 -9 -19 -7 -19 5 0 18 -16 19 -57 5 -33 -12 -78 -65 -68 -80 3 -6 -1 -7
-10 -4 -9 4 -14 11 -12 17 2 6 -2 36 -9 66 -10 42 -10 57 -1 63 8 5 4 15 -13
33 -19 20 -21 28 -11 34 9 6 6 10 -11 14 -35 10 -60 7 -95 -10z m67 -23 c0 -5
-7 -10 -16 -10 -9 0 -12 -5 -8 -12 5 -7 3 -8 -7 -2 -8 5 -17 9 -21 9 -3 0 -9
3 -12 8 -3 4 -3 5 0 3 4 -3 31 3 62 13 1 1 2 -3 2 -9z m46 -87 c6 -30 3 -39
-14 -54 -12 -9 -19 -19 -16 -22 3 -3 -3 -14 -13 -24 -17 -17 -19 -17 -35 -1
-12 12 -13 18 -5 21 8 3 4 13 -11 29 -19 21 -21 28 -11 56 10 29 15 32 55 32
42 0 43 -1 50 -37z m82 -228 c-3 -60 -11 -63 -42 -22 l-20 28 29 24 c17 13 31
24 33 25 1 0 1 -25 0 -55z m-27 -76 c17 -13 19 -20 11 -34 -5 -10 -8 -37 -5
-59 3 -31 2 -37 -6 -26 -6 8 -11 29 -11 46 0 16 -7 39 -15 50 -8 10 -15 27
-15 37 0 9 -7 17 -15 17 -8 0 -15 6 -15 13 0 27 14 27 31 0 10 -15 28 -35 40
-44z m-101 21 c0 -5 -8 -10 -17 -10 -15 0 -16 2 -3 10 19 12 20 12 20 0z m288
-92 c3 -14 -3 -18 -27 -18 -31 0 -47 13 -36 31 11 16 59 6 63 -13z"/>
<path d="M1406 1791 c-4 -7 -5 -15 -2 -18 9 -9 19 4 14 18 -4 11 -6 11 -12 0z"/>
<path d="M1074 1834 c-27 -14 -77 -51 -110 -85 l-59 -60 43 21 c25 12 52 36
66 59 16 25 34 40 53 44 30 6 71 32 63 40 -3 3 -28 -6 -56 -19z"/>
<path d="M1627 1853 c-4 -3 -7 -11 -7 -17 0 -6 5 -5 12 2 6 6 9 14 7 17 -3 3
-9 2 -12 -2z"/>
<path d="M1685 1850 c-3 -5 -1 -10 4 -10 6 0 11 5 11 10 0 6 -2 10 -4 10 -3 0
-8 -4 -11 -10z"/>
<path d="M2025 1840 c10 -11 32 -22 50 -26 23 -4 41 -18 62 -48 19 -26 44 -48
64 -55 33 -11 33 -11 -20 43 -64 65 -209 145 -156 86z"/>
<path d="M840 1789 c0 -43 2 -42 -47 -22 -19 8 -17 -66 2 -87 14 -15 14 -21 0
-53 -17 -41 -19 -85 -5 -107 13 -21 30 29 30 91 0 43 3 49 21 49 11 0 17 4 14
10 -3 6 1 7 10 4 13 -5 15 -1 11 17 -3 13 -8 50 -11 82 -7 66 -25 77 -25 16z
m-10 -54 c20 -24 6 -28 -15 -5 -10 11 -13 20 -8 20 6 0 16 -7 23 -15z"/>
<path d="M2287 1797 c-22 -125 -22 -127 12 -133 30 -6 31 -8 31 -63 0 -34 6
-65 14 -77 14 -18 15 -18 22 10 4 18 1 48 -9 79 -15 45 -15 53 -2 67 20 22 20
90 1 90 -8 0 -18 -4 -21 -10 -3 -5 -1 -10 4 -10 6 0 3 -8 -6 -18 -21 -22 -32
-19 -13 3 8 10 9 15 1 15 -6 0 -11 15 -11 34 0 46 -16 55 -23 13z"/>
<path d="M2170 1786 c0 -2 8 -10 18 -17 15 -13 16 -12 3 4 -13 16 -21 21 -21
13z"/>
<path d="M990 1715 l-55 -24 39 -1 c33 0 106 31 106 46 0 10 -40 1 -90 -21z"/>
<path d="M2070 1736 c0 -15 68 -46 100 -46 l35 1 -35 18 c-38 20 -100 36 -100
27z"/>
<path d="M726 1654 c-3 -9 -6 -34 -6 -57 l-1 -42 -19 24 c-18 20 -20 21 -20 5
1 -25 49 -114 50 -92 0 12 5 15 16 11 12 -5 15 -2 11 13 -4 10 -7 48 -9 82 -3
65 -11 85 -22 56z"/>
<path d="M2408 1664 c-2 -5 -6 -31 -7 -59 -1 -27 -4 -62 -7 -77 -3 -21 -1 -26
11 -22 10 4 15 0 16 -12 0 -11 11 3 25 31 29 61 31 86 4 54 l-19 -24 -1 40
c-2 44 -14 84 -22 69z"/>
<path d="M928 1649 c-34 -19 -18 -29 45 -29 l62 1 -35 19 c-40 22 -49 23 -72
9z"/>
<path d="M2155 1644 c-44 -23 -43 -24 23 -24 66 0 78 9 37 28 -31 14 -24 15
-60 -4z"/>
<path d="M870 1630 c-6 -11 -8 -20 -6 -20 3 0 10 9 16 20 6 11 8 20 6 20 -3 0
-10 -9 -16 -20z"/>
<path d="M920 1555 c-29 -19 -54 -35 -56 -35 -2 0 -4 10 -4 22 0 22 0 22 -13
3 -20 -29 -67 -155 -58 -155 16 0 52 49 62 84 7 26 15 36 30 36 27 0 69 23 98
54 36 39 5 34 -59 -9z"/>
<path d="M2171 1564 c29 -31 70 -54 97 -54 14 0 21 -9 25 -30 4 -16 23 -47 42
-69 20 -22 34 -45 31 -50 -4 -5 -2 -12 4 -16 17 -10 11 23 -10 62 -11 21 -20
43 -20 50 0 7 -10 33 -22 57 -18 38 -23 43 -33 30 -10 -14 -18 -12 -63 15 -64
38 -84 40 -51 5z"/>
<path d="M866 1439 c-45 -42 -63 -64 -55 -69 9 -6 9 -18 0 -53 -14 -56 -14
-90 -1 -82 6 3 10 1 10 -4 0 -26 17 -6 43 48 33 71 35 96 3 56 l-23 -29 -5 37
c-3 28 0 38 12 42 30 10 115 115 93 115 -6 0 -40 -28 -77 -61z"/>
<path d="M2214 1473 c25 -48 95 -104 128 -103 14 1 -120 130 -134 130 -5 0 -2
-12 6 -27z"/>
<path d="M690 1450 c0 -18 -3 -19 -20 -10 -16 9 -22 8 -26 -5 -10 -26 6 -65
32 -77 13 -6 33 -30 43 -52 19 -42 61 -89 61 -67 0 6 -14 42 -32 79 -18 37
-34 72 -36 77 -3 6 5 1 18 -10 22 -19 22 -18 -4 33 -29 56 -36 63 -36 32z m-4
-82 c4 -7 -2 -4 -14 6 -12 11 -22 29 -22 40 0 18 2 17 14 -6 8 -16 18 -34 22
-40z"/>
<path d="M2424 1425 c-22 -44 -20 -57 4 -33 18 18 14 -1 -6 -30 -16 -23 -36
-68 -60 -132 -12 -33 52 38 70 78 10 23 23 42 28 42 17 0 50 43 50 65 0 29 -9
36 -31 24 -16 -8 -19 -6 -19 11 0 32 -13 23 -36 -25z m62 -41 c-10 -14 -20
-23 -23 -21 -6 6 30 57 36 51 2 -2 -4 -15 -13 -30z"/>
<path d="M1115 1421 c-67 -43 -77 -55 -69 -85 3 -15 14 -30 23 -34 9 -3 19
-10 23 -16 4 -6 8 1 8 15 0 17 8 30 23 38 l22 12 -22 -5 c-13 -2 -23 -1 -23 3
0 16 26 31 55 30 16 0 24 -3 18 -6 -7 -2 -13 -9 -13 -15 0 -6 8 -7 17 -4 9 4
20 1 24 -5 5 -8 13 -6 29 9 l21 20 -21 15 c-13 9 -19 20 -15 27 6 9 -2 11 -28
8 -20 -2 -38 0 -39 4 -2 4 -16 -1 -33 -11z"/>
<path d="M1997 1419 c-20 -12 -47 -60 -47 -86 0 -13 9 -7 31 20 22 26 38 37
58 37 25 0 27 -3 27 -34 -1 -19 -3 -34 -6 -34 -18 1 -30 -3 -30 -12 0 -5 3 -9
8 -9 41 7 58 -25 27 -51 -16 -13 -21 -32 -7 -27 4 1 8 -2 9 -8 3 -12 -61 -12
-96 -1 -15 5 -21 5 -17 -2 3 -6 2 -21 -3 -34 -8 -21 -4 -26 30 -45 21 -12 39
-18 39 -13 0 4 -7 10 -15 14 -8 3 -15 14 -15 25 0 10 7 21 15 25 10 3 15 -1
15 -12 0 -20 35 -62 50 -62 23 0 25 2 22 19 -1 9 11 35 28 55 71 90 64 215
-12 216 -13 0 -32 7 -42 15 -23 17 -44 19 -69 4z"/>
<path d="M772 1360 c0 -14 2 -19 5 -12 2 6 2 18 0 25 -3 6 -5 1 -5 -13z"/>
<path d="M2310 1339 l0 -33 -31 30 -31 29 15 -35 c37 -89 67 -133 67 -99 0 5
5 7 10 4 13 -8 13 12 -1 74 -12 60 -29 76 -29 30z"/>
<path d="M1990 1343 c0 -10 4 -14 8 -8 4 6 11 13 16 18 5 4 2 7 -7 7 -10 0
-17 -8 -17 -17z"/>
<path d="M1245 1278 c-22 -11 -48 -27 -57 -35 -11 -10 -26 -13 -42 -9 -22 5
-26 1 -44 -46 -10 -29 -22 -69 -25 -88 l-6 -35 14 30 c8 17 14 40 15 53 0 18
3 20 13 10 8 -6 12 -22 9 -34 -2 -12 1 -25 7 -28 17 -11 13 45 -4 64 -23 25
-10 47 24 42 35 -5 74 14 67 33 -3 8 0 17 6 21 7 5 8 2 3 -5 -9 -16 17 -2 55
28 32 26 16 26 -35 -1z"/>
<path d="M1160 1280 c-13 -8 -13 -10 2 -10 9 0 20 5 23 10 8 13 -5 13 -25 0z"/>
<path d="M591 1276 c2 -2 15 -9 29 -16 23 -12 24 -12 11 3 -7 10 -20 17 -29
17 -8 0 -13 -2 -11 -4z"/>
<path d="M1970 1270 c0 -5 5 -10 11 -10 5 0 7 5 4 10 -3 6 -8 10 -11 10 -2 0
-4 -4 -4 -10z"/>
<path d="M2559 1263 c-13 -15 -12 -15 11 -3 34 17 36 20 18 20 -9 0 -22 -7
-29 -17z"/>
<path d="M657 1254 c-6 -7 13 -54 22 -55 61 -7 77 -19 28 -19 -25 0 -37 -5
-37 -14 0 -14 42 -26 93 -26 l30 0 -21 23 c-15 16 -19 26 -12 33 15 15 -26 64
-53 64 -18 -1 -16 -3 11 -15 17 -8 32 -16 32 -19 0 -6 -51 14 -64 26 -12 10
-20 10 -29 2z"/>
<path d="M2270 1256 c0 -2 8 -10 18 -17 15 -13 16 -12 3 4 -13 16 -21 21 -21
13z"/>
<path d="M2401 1234 c-26 -33 -12 -61 20 -43 11 5 23 7 28 4 11 -6 53 50 44
59 -3 3 -21 6 -39 6 -23 0 -38 -8 -53 -26z m48 12 c-2 -2 -15 -9 -29 -15 -24
-11 -24 -11 -6 3 16 13 49 24 35 12z"/>
<path d="M566 1212 c-3 -5 1 -9 9 -9 8 0 12 4 9 9 -3 4 -7 8 -9 8 -2 0 -6 -4
-9 -8z"/>
<path d="M605 1192 c-5 -4 -19 -18 -30 -32 -16 -21 -14 -20 13 4 29 27 37 36
30 36 -2 0 -7 -4 -13 -8z"/>
<path d="M1214 1150 c5 -27 12 -48 14 -45 7 7 -9 95 -17 95 -4 0 -3 -22 3 -50z"/>
<path d="M905 1154 c-9 -14 -19 -41 -22 -60 -6 -34 -6 -34 -26 -17 -20 18 -20
18 -8 -7 10 -21 7 -19 -19 9 -25 26 -31 29 -25 12 8 -26 -2 -27 -23 -2 -10 11
-28 22 -42 26 -24 7 -25 7 -5 -9 19 -16 19 -16 -10 -10 -16 4 -36 12 -44 18
-12 9 -12 8 -2 -11 15 -28 61 -53 99 -53 18 0 38 -10 57 -30 16 -16 34 -30 41
-30 15 0 60 53 69 81 8 24 -3 39 -14 20 -12 -18 -20 54 -8 74 14 25 1 17 -18
-11z"/>
<path d="M2226 1124 c2 -57 1 -58 -12 -29 l-13 30 -1 -33 c0 -24 9 -42 34 -67
18 -19 37 -35 43 -35 5 0 22 14 38 30 19 20 39 30 58 30 33 0 92 32 101 55 7
19 -13 19 -38 0 -25 -19 -42 -19 -27 -1 10 12 8 13 -9 9 -12 -3 -27 -14 -33
-24 -16 -26 -30 -24 -22 4 6 18 1 15 -25 -13 -19 -22 -29 -28 -26 -16 5 15 4
16 -7 8 -10 -9 -15 -2 -24 31 -7 23 -18 50 -26 61 -12 16 -13 12 -11 -40z"/>
<path d="M2374 1162 c-24 -24 -15 -29 36 -21 76 12 96 19 79 30 -21 13 -99 7
-115 -9z"/>
<path d="M2330 1140 c-6 -11 -8 -20 -6 -20 3 0 10 9 16 20 6 11 8 20 6 20 -3
0 -10 -9 -16 -20z"/>
<path d="M820 1120 c6 -11 13 -20 16 -20 2 0 0 9 -6 20 -6 11 -13 20 -16 20
-2 0 0 -9 6 -20z"/>
<path d="M1926 1088 c-3 -13 -6 -44 -6 -70 l0 -47 54 -6 c70 -9 77 -4 60 42
-7 21 -13 50 -14 66 0 23 -4 27 -29 27 -16 0 -36 3 -44 6 -9 3 -17 -3 -21 -18z
m91 -110 c-3 -8 -6 -5 -6 6 -1 11 2 17 5 13 3 -3 4 -12 1 -19z"/>
<path d="M1210 1078 c-13 -5 -38 -8 -55 -6 l-30 3 0 -55 c0 -48 3 -55 21 -58
18 -3 22 4 28 37 8 52 22 52 31 1 4 -22 8 -40 10 -40 2 0 15 4 28 9 24 9 24
11 13 59 -13 61 -15 62 -46 50z"/>
<path d="M910 995 c0 -3 5 -16 11 -27 10 -19 9 -20 -7 -13 -11 4 -29 10 -41
12 -13 3 -23 9 -23 14 0 5 -5 9 -12 9 -16 0 41 -59 72 -74 25 -13 60 -11 60 3
0 4 14 5 31 3 l31 -5 -16 31 c-9 17 -25 36 -35 42 -31 16 -35 12 -10 -10 31
-26 19 -25 -25 1 -20 12 -36 18 -36 14z"/>
<path d="M2167 989 c-9 -5 -24 -24 -33 -40 -15 -30 -15 -31 8 -28 31 3 63 -13
63 -31 0 -23 39 -23 82 -1 l38 20 -43 1 -42 0 40 36 c46 41 47 52 4 29 -40
-20 -53 -19 -47 5 7 25 3 25 -44 -2 l-38 -22 19 22 c21 24 20 26 -7 11z"/>
<path d="M731 981 c-12 -7 -12 -13 -3 -24 7 -7 9 -17 5 -20 -7 -8 -54 2 -71
16 -28 22 -21 -2 8 -26 33 -29 98 -46 109 -29 3 5 15 11 25 13 29 6 30 26 2
54 -26 26 -51 31 -75 16z m59 -16 c14 -8 21 -14 15 -14 -5 0 -21 6 -35 14 -14
8 -20 14 -15 14 6 0 21 -6 35 -14z"/>
<path d="M2363 980 c-25 -10 -47 -46 -37 -61 3 -6 12 -8 19 -5 8 3 19 -2 25
-10 7 -8 19 -14 27 -14 27 0 83 32 95 54 9 18 9 19 -3 10 -18 -15 -64 -25 -72
-17 -4 3 -2 13 5 20 9 11 9 17 -3 24 -17 11 -27 10 -56 -1z m13 -15 c-20 -15
-36 -19 -36 -10 0 5 38 23 50 24 3 0 -4 -6 -14 -14z"/>
<path d="M1050 963 c0 -5 7 -18 15 -29 21 -28 18 -40 -5 -19 -17 16 -20 16
-20 2 0 -9 5 -19 10 -22 19 -12 11 -26 -9 -15 -11 5 -30 10 -43 9 -18 0 -13
-5 21 -20 25 -11 50 -18 57 -15 6 2 21 -2 31 -9 35 -24 103 -44 103 -30 0 12
-23 35 -50 50 -9 5 -7 -1 5 -15 l20 -23 -30 16 c-16 8 -38 18 -47 21 -28 9
-21 27 7 20 22 -5 25 -3 25 19 0 20 -8 30 -37 43 -21 10 -41 19 -45 21 -5 2
-8 0 -8 -4z"/>
<path d="M542 939 c10 -5 23 -19 29 -31 10 -18 9 -20 -6 -14 -15 5 -16 4 -5
-9 7 -8 18 -15 26 -15 7 0 15 -4 18 -9 4 -5 -12 -7 -36 -4 -27 4 -39 3 -35 -4
8 -13 -10 -29 -38 -36 -12 -3 -6 -5 16 -6 19 0 40 4 46 10 6 6 17 9 23 7 7 -2
1 -14 -16 -31 -14 -15 -21 -27 -15 -27 25 0 51 21 67 56 16 34 16 38 -1 70
-10 19 -30 37 -48 43 -37 14 -47 14 -25 0z"/>
<path d="M2546 909 c-14 -17 -26 -36 -26 -43 0 -23 31 -76 50 -86 35 -19 43
-10 16 17 -29 29 -28 40 2 24 12 -6 36 -11 54 -11 l33 1 -28 12 c-16 7 -30 17
-30 22 -1 6 -19 10 -41 9 l-38 -1 23 18 c13 9 28 15 33 12 5 -3 6 -1 2 6 -4 6
-12 8 -18 5 -6 -4 -6 1 1 14 23 43 3 44 -33 1z"/>
<path d="M865 909 c-4 -6 -14 -8 -24 -4 -13 5 -14 4 -3 -6 10 -11 15 -10 29 4
10 9 14 17 11 17 -4 0 -10 -5 -13 -11z"/>
<path d="M659 865 c-1 -3 -2 -10 -3 -15 0 -6 -8 -15 -16 -21 -11 -7 -4 -9 27
-7 l42 3 -26 -27 c-21 -22 -22 -26 -7 -22 22 6 43 22 63 47 12 15 12 19 -5 32
-18 14 -73 21 -75 10z"/>
<path d="M2424 857 c-8 -22 14 -67 38 -76 34 -13 34 -5 2 24 -21 19 -23 24 -9
18 18 -8 29 -8 60 -4 6 1 -1 8 -15 16 -15 9 -19 14 -10 15 13 0 13 1 0 10 -22
14 -60 12 -66 -3z"/>
<path d="M936 814 c-9 -24 -8 -26 14 -14 17 9 20 8 20 -9 0 -11 4 -22 9 -25
12 -8 34 21 28 36 -4 8 -6 7 -6 -4 -1 -10 -6 -18 -12 -18 -6 0 -9 6 -6 13 2 6
-3 17 -12 24 -21 16 -28 16 -35 -3z"/>
<path d="M1017 781 c-3 -12 -1 -19 4 -15 5 3 9 0 9 -5 0 -18 18 -12 23 7 3 12
5 10 6 -7 1 -18 5 -22 21 -18 10 3 25 -1 31 -9 13 -16 39 -2 39 21 0 17 -28
27 -36 13 -4 -7 -10 -5 -16 6 -6 11 -18 15 -36 11 -14 -2 -29 0 -33 6 -3 6 -9
2 -12 -10z m73 -21 c0 -5 -4 -10 -10 -10 -5 0 -10 5 -10 10 0 6 5 10 10 10 6
0 10 -4 10 -10z m50 -10 c0 -5 -7 -10 -15 -10 -8 0 -15 5 -15 10 0 6 7 10 15
10 8 0 15 -4 15 -10z"/>
<path d="M2186 788 c-13 -41 -14 -43 -15 -25 -1 9 -6 17 -12 17 -5 0 -7 -4 -4
-10 3 -5 2 -10 -4 -10 -5 0 -12 6 -14 13 -3 6 -6 -1 -6 -16 -1 -16 3 -26 9
-22 5 3 20 8 32 10 20 4 37 21 38 37 0 14 -20 19 -24 6z"/>
<path d="M2222 774 c-2 -21 1 -24 11 -15 8 6 17 8 20 4 4 -3 7 -2 7 3 0 11
-20 34 -30 34 -3 0 -7 -12 -8 -26z"/>
<path d="M2088 764 c-3 -3 -4 -14 -1 -24 5 -17 7 -17 20 -5 8 8 11 19 8 25 -7
11 -19 13 -27 4z"/>
<path d="M1177 754 c-15 -15 -7 -45 11 -42 9 2 17 12 17 22 0 20 -16 31 -28
20z m15 -26 c-7 -7 -12 -8 -12 -2 0 14 12 26 19 19 2 -3 -1 -11 -7 -17z"/>
<path d="M1217 729 c-5 -20 17 -39 30 -25 4 3 0 6 -8 6 -11 0 -11 2 1 10 13 9
13 10 0 10 -13 0 -13 1 0 10 13 8 13 10 -1 10 -9 0 -19 -9 -22 -21z"/>
<path d="M1987 744 c-15 -15 -7 -45 11 -42 9 2 17 12 17 22 0 20 -16 31 -28
20z m23 -25 c0 -5 -4 -9 -10 -9 -5 0 -10 7 -10 16 0 8 5 12 10 9 6 -3 10 -10
10 -16z"/>
<path d="M2030 732 c0 -11 7 -18 20 -18 23 0 25 7 8 24 -17 17 -28 15 -28 -6z"/>
<path d="M1281 721 c-14 -26 -14 -27 9 -27 12 0 20 7 20 18 0 26 -18 31 -29 9z"/>
<path d="M1320 720 c0 -5 4 -10 9 -10 6 0 13 5 16 10 3 6 -1 10 -9 10 -9 0
-16 -4 -16 -10z"/>
<path d="M1367 724 c-4 -4 -2 -13 4 -21 14 -16 -3 -17 -19 -1 -9 9 -12 9 -12
-1 0 -7 -5 -9 -12 -5 -6 4 -8 3 -5 -3 4 -6 24 -10 44 -10 21 0 48 -3 60 -7 22
-7 41 8 23 19 -6 4 -8 11 -5 16 4 5 1 9 -4 9 -14 0 -14 -13 1 -28 9 -9 9 -12
0 -12 -7 0 -17 10 -22 23 -8 19 -9 20 -9 3 -1 -20 -16 -13 -16 7 0 13 -19 20
-28 11z"/>
<path d="M1512 701 c-8 -24 -7 -31 5 -35 9 -4 18 -4 21 -1 3 3 0 5 -7 5 -13 0
-11 31 3 41 4 4 4 9 -2 13 -6 3 -15 -7 -20 -23z"/>
<path d="M1885 709 c-8 -23 -8 -23 -16 -4 -7 19 -8 19 -8 -2 -1 -23 10 -27 42
-15 15 7 16 10 4 27 -14 18 -15 18 -22 -6z"/>
<path d="M1924 714 c3 -9 6 -18 6 -20 0 -2 8 -4 18 -3 10 0 12 3 5 6 -7 2 -13
11 -13 19 0 8 -5 14 -11 14 -6 0 -8 -7 -5 -16z"/>
<path d="M1471 711 c0 -3 4 -15 8 -26 7 -18 8 -17 13 6 3 17 0 26 -9 26 -7 0
-13 -3 -12 -6z"/>
<path d="M1730 710 c-13 -9 -13 -11 0 -20 13 -8 13 -10 1 -10 -11 0 -12 -3 -4
-11 7 -7 17 -8 25 -3 7 5 20 7 30 6 9 -2 19 2 23 8 5 8 10 8 20 0 10 -8 15 -8
21 1 4 7 3 9 -4 5 -6 -3 -13 -2 -17 3 -3 5 2 14 11 19 12 7 6 9 -24 9 -28 0
-43 -5 -48 -16 -5 -14 -7 -14 -13 1 -4 13 -10 15 -21 8z m67 -26 c-9 -9 -28 6
-21 18 4 6 10 6 17 -1 6 -6 8 -13 4 -17z"/>
<path d="M1550 690 c0 -13 3 -20 7 -17 3 4 12 2 18 -3 9 -8 12 -3 12 17 0 16
-2 22 -4 15 -4 -10 -8 -10 -19 -1 -11 9 -14 7 -14 -11z"/>
<path d="M1597 696 c-5 -14 10 -36 25 -36 4 0 8 5 8 11 0 5 -4 7 -10 4 -5 -3
-10 0 -10 9 0 8 6 17 13 19 7 4 6 6 -4 6 -9 1 -19 -5 -22 -13z"/>
<path d="M1642 690 c0 -14 2 -19 5 -12 2 6 2 18 0 25 -3 6 -5 1 -5 -13z"/>
<path d="M1666 694 c-9 -23 -8 -24 14 -24 11 0 20 2 20 4 0 12 -13 36 -20 36
-4 0 -11 -7 -14 -16z"/>
<path d="M1471 540 c-8 -21 -4 -120 4 -120 6 0 9 20 7 48 -3 48 -8 81 -11 72z"/>
<path d="M1530 520 c-12 -22 2 -60 22 -60 9 0 9 3 0 12 -15 15 -16 45 -1 54
32 19 32 -54 1 -90 -16 -18 -16 -18 4 -8 12 6 24 19 28 28 22 59 -26 117 -54
64z"/>
<path d="M1632 517 c-26 -28 -29 -69 -5 -88 15 -12 16 -12 9 6 -4 11 -8 22 -8
25 -2 24 5 43 22 60 11 11 16 20 12 20 -5 0 -18 -10 -30 -23z"/>
<path d="M1712 519 c-7 -12 -12 -22 -10 -22 32 -16 43 -28 41 -46 -2 -13 1
-20 7 -16 17 10 11 44 -10 57 -11 7 -20 16 -20 20 0 5 9 8 20 8 11 0 20 5 20
10 0 18 -35 10 -48 -11z"/>
<path d="M1650 493 c0 -5 5 -14 11 -20 8 -8 7 -17 -2 -34 -11 -22 -11 -23 4
-10 21 17 22 45 2 61 -8 7 -15 8 -15 3z"/>
<path d="M1700 430 c0 -6 7 -10 15 -10 8 0 15 2 15 4 0 2 -7 6 -15 10 -8 3
-15 1 -15 -4z"/>
</g>
</svg>
